<?xml version="1.0" encoding="UTF-8"?> <svg width="1920" height="540" viewBox="0 0 1920 540" fill="none" xmlns="http://www.w3.org/2000/svg">
<g clip-path="url(#clip0_751_5184)">
<rect width="1920" height="540" fill="white"/>
<g clip-path="url(#clip1_751_5184)">
<path d="M1958 0H40V541H1958V0Z" fill="url(#paint0_linear_751_5184)"/>
<path fill-rule="evenodd" clip-rule="evenodd" d="M1128.56 459.794C1184.7 417.81 1235.93 360.886 1305.95 362.655C1366.21 364.178 1385.23 458.106 1444.73 467.786C1598.22 492.756 1780.63 350.876 1893.38 458.216C2007.7 567.063 2016.15 794.096 1913.27 913.865C1811.42 1032.43 1619.95 974.762 1464.86 957.061C1374.73 946.774 1319.67 861.417 1232.52 836.169C1078.81 791.637 820.129 912.451 777.443 757.904C734.902 603.88 1000.76 555.371 1128.56 459.794Z" fill="url(#paint1_linear_751_5184)"/>
<path fill-rule="evenodd" clip-rule="evenodd" d="M211.771 141.19C90.1366 251.74 223.044 582.931 59.0317 590.758C-101.821 598.433 -153.024 356.591 -276.718 253.247C-430.639 124.653 -769.662 276.359 -830.045 84.8586C-883.593 -84.959 -561.847 -117.582 -431.979 -239.141C-311.243 -352.151 -270.556 -557.135 -108.709 -590.325C68.8589 -626.736 253.729 -535.288 380.87 -405.825C507.128 -277.261 637.958 -74.8998 554.366 84.8588C468.637 248.706 348.513 16.9095 211.771 141.19Z" fill="url(#paint2_linear_751_5184)"/>
<path fill-rule="evenodd" clip-rule="evenodd" d="M2232.16 -173.993C2243.84 0.780273 1995.77 80.7489 1827.35 127.526C1720.9 157.087 1636.8 27.7165 1526.51 21.989C1429.06 16.9295 1342.87 98.2733 1254.52 56.7626C1157.91 11.3621 1138.93 -71.2122 1109.43 -173.993C1061.94 -339.44 937.038 -524.816 1036.24 -665.363C1136.34 -807.193 1360.55 -815.08 1526.51 -764.911C1665.61 -722.857 1678.04 -531.007 1789.54 -437.634C1926.47 -322.981 2220.22 -352.409 2232.16 -173.993Z" fill="url(#paint3_linear_751_5184)"/>
<path fill-rule="evenodd" clip-rule="evenodd" d="M785.277 468.272C729.138 426.288 684.076 374.105 615.073 374.105C546.072 374.105 505.199 458.594 445.698 468.273C292.203 493.244 109.789 351.364 -2.95599 458.704C-117.284 567.551 -125.726 794.582 -22.8411 914.351C79.0056 1032.92 270.466 975.249 425.561 957.548C515.693 947.261 570.758 861.904 657.905 836.656C811.609 792.125 1070.3 912.937 1112.98 758.391C1155.52 604.367 913.077 563.849 785.277 468.272Z" fill="url(#paint4_linear_751_5184)"/>
</g>
<g clip-path="url(#clip2_751_5184)">
<path d="M1078.87 206.053H1056.7V138.272C1056.7 133.16 1052.53 129 1047.42 129H871.994C866.88 129 862.718 133.16 862.718 138.272V206.053H840.541C835.834 206.053 832 209.842 832 214.497V372.559C832 377.214 835.828 381.003 840.541 381.003H990.535L984.196 423.81C983.881 425.949 984.976 428.014 986.917 428.959C988.859 429.905 991.166 429.479 992.644 427.909L1008.2 411.447L1018.35 444.246C1018.88 445.971 1020.06 447.38 1021.65 448.221C1022.64 448.74 1023.71 449.006 1024.8 449.006C1025.46 449.006 1026.14 448.907 1026.8 448.703L1038.32 445.143C1040.05 444.611 1041.46 443.437 1042.3 441.842C1043.14 440.247 1043.31 438.417 1042.77 436.699L1032.63 403.899L1054.76 408.709C1056.87 409.166 1059.01 408.214 1060.08 406.341C1061.15 404.468 1060.88 402.144 1059.42 400.555L1041.31 381.009H1078.87C1083.58 381.009 1087.41 377.22 1087.41 372.565V214.503C1087.41 209.848 1083.58 206.059 1078.87 206.059V206.053ZM1000.88 276.424L1081.23 217.761V369.592L1000.88 276.424ZM1078.31 212.234L1056.7 228.016V212.234H1078.31ZM871.994 135.182H1047.42C1049.13 135.182 1050.51 136.566 1050.51 138.272V232.535L961.531 297.497C960.436 298.294 958.97 298.294 957.882 297.497L868.902 232.535V138.272C868.902 136.566 870.287 135.182 871.994 135.182ZM838.184 369.592V217.761L918.537 276.424L838.184 369.592ZM862.718 228.016L841.103 212.234H862.718V228.016ZM1028.76 396.723C1027.68 396.488 1026.57 396.846 1025.82 397.656C1025.08 398.466 1024.82 399.609 1025.15 400.66L1036.87 438.516C1036.92 438.702 1036.88 438.856 1036.83 438.949C1036.78 439.042 1036.68 439.171 1036.49 439.227L1024.97 442.788C1024.67 442.88 1024.35 442.713 1024.26 442.411L1012.54 404.555C1012.21 403.504 1011.36 402.706 1010.28 402.459C1010.05 402.404 1009.82 402.379 1009.58 402.379C1008.74 402.379 1007.93 402.725 1007.33 403.349L990.894 420.75L1001.75 347.406L1052.16 401.81L1028.76 396.729V396.723ZM1004.51 341.274C1003.21 339.871 1001.27 339.352 999.441 339.914C997.616 340.477 996.305 342.004 996.027 343.895L991.451 374.815H841.839L923.547 280.077L954.233 302.479C955.872 303.672 957.789 304.272 959.706 304.272C961.624 304.272 963.541 303.672 965.18 302.479L995.866 280.077L1077.57 374.815H1035.59L1004.51 341.268L1004.51 341.274Z" fill="white"/>
<path d="M915.765 164.804L927.485 172.191L930.633 183.07C930.633 183.07 930.633 183.07 930.633 183.076C930.633 183.076 930.633 183.083 930.633 183.089L939.699 213.675L935.716 216.352C934.863 216.927 934.349 217.885 934.349 218.917V226.347C934.349 228.053 935.735 229.438 937.441 229.438H944.745C941.931 230.86 939.989 233.771 939.989 237.134C939.989 241.894 943.861 245.763 948.623 245.763C953.385 245.763 957.256 241.894 957.256 237.134C957.256 233.771 955.32 230.86 952.506 229.438H977.813C974.999 230.86 973.063 233.771 973.063 237.134C973.063 241.894 976.935 245.763 981.697 245.763C986.458 245.763 990.33 241.894 990.33 237.134C990.33 233.771 988.394 230.86 985.574 229.438H993.107C994.813 229.438 996.199 228.053 996.199 226.347C996.199 224.641 994.813 223.256 993.107 223.256H940.54V220.561L944.257 218.064H993.898C995.321 218.064 996.557 217.093 996.898 215.715L1004.99 182.953C1005.22 182.032 1005.01 181.055 1004.42 180.307C1003.84 179.559 1002.94 179.12 1001.99 179.12H935.92L933.094 169.341C932.884 168.612 932.414 167.987 931.77 167.585L919.055 159.574C917.608 158.665 915.704 159.098 914.788 160.538C913.879 161.985 914.312 163.889 915.753 164.804H915.765ZM948.629 239.588C947.281 239.588 946.18 238.488 946.18 237.14C946.18 235.793 947.275 234.692 948.629 234.692C949.983 234.692 951.078 235.793 951.078 237.14C951.078 238.488 949.983 239.588 948.629 239.588ZM981.697 239.588C980.348 239.588 979.248 238.488 979.248 237.14C979.248 235.793 980.342 234.692 981.697 234.692C983.051 234.692 984.146 235.793 984.146 237.14C984.146 238.488 983.051 239.588 981.697 239.588ZM998.048 185.302L991.48 211.882H945.623L937.744 185.302H998.048Z" fill="white"/>
</g>
<g clip-path="url(#clip3_751_5184)">
<path d="M1372.43 207.351L1376.23 206.114C1377.38 205.739 1378.01 204.509 1377.64 203.365L1376.48 199.824C1379.38 198.378 1381.73 196.564 1383.5 194.35C1386.28 190.85 1387.05 187.029 1385.79 182.876C1385 180.286 1383.58 178.331 1381.51 177.016C1378.17 174.93 1373.83 174.352 1368.5 175.3L1366.17 168.132C1367.2 168.262 1368.25 168.544 1369.31 168.997C1369.96 169.252 1370.63 169.281 1371.3 169.061C1371.85 168.883 1372.48 168.262 1372.48 168.262L1372.49 168.259L1375.88 164.19C1376.34 163.631 1376.49 163.066 1376.31 162.489C1376.17 162.026 1375.85 161.687 1375.36 161.464C1371.72 159.3 1367.67 158.544 1363.24 159.173L1361.93 155.136C1361.56 153.986 1360.32 153.362 1359.18 153.734L1355.37 154.972C1354.22 155.346 1353.6 156.581 1353.97 157.726L1355.25 161.654C1353.37 162.568 1351.75 163.649 1350.4 164.887C1346.04 168.881 1344.66 173.195 1346.26 177.794C1347.04 180.058 1348.38 181.851 1350.28 183.173C1353.48 185.438 1357.7 186.129 1362.94 185.275L1365.85 194.225C1363.44 194.164 1360.94 193.409 1358.35 191.95C1357.75 191.541 1357.09 191.451 1356.39 191.678C1356.01 191.804 1355.36 192.379 1355.36 192.379L1355.35 192.383L1352.21 195.929C1351.67 196.533 1351.52 197.143 1351.73 197.774C1351.87 198.182 1352.14 198.496 1352.54 198.73C1354.02 199.812 1355.8 200.722 1357.93 201.461C1361.36 202.68 1364.89 202.986 1368.51 202.413L1369.66 205.949C1370.03 207.093 1371.26 207.719 1372.41 207.345L1372.43 207.351ZM1371.23 183.653C1373.5 183.634 1374.92 184.492 1375.48 186.255C1376 187.898 1375.66 189.413 1374.48 190.794C1374.27 191.044 1374.03 191.279 1373.78 191.504L1371.23 183.653ZM1356.65 174.451C1356.23 173.172 1356.64 171.937 1357.9 170.74L1358.15 170.532L1360.22 176.885C1358.35 176.789 1357.16 175.979 1356.65 174.451Z" stroke="white" stroke-linejoin="round"/>
<path d="M1376.96 215.491C1396.22 209.223 1406.76 188.524 1400.49 169.26C1394.22 149.995 1373.53 139.459 1354.26 145.727C1335 151.995 1324.46 172.693 1330.73 191.958C1337 211.223 1357.69 221.759 1376.96 215.491Z" stroke="white" stroke-linejoin="round"/>
</g>
<g clip-path="url(#clip4_751_5184)">
<path d="M587.429 413.351L591.232 412.114C592.382 411.739 593.008 410.509 592.636 409.365L591.484 405.824C594.381 404.378 596.725 402.564 598.498 400.35C601.282 396.85 602.053 393.029 600.79 388.876C600.004 386.286 598.581 384.331 596.51 383.016C593.168 380.93 588.831 380.352 583.498 381.3L581.166 374.132C582.197 374.262 583.246 374.544 584.312 374.997C584.961 375.252 585.626 375.281 586.303 375.061C586.85 374.883 587.479 374.262 587.479 374.262L587.49 374.259L590.882 370.19C591.343 369.631 591.492 369.066 591.311 368.489C591.167 368.026 590.855 367.687 590.36 367.464C586.716 365.3 582.674 364.544 578.245 365.173L576.931 361.136C576.557 359.986 575.321 359.362 574.177 359.734L570.374 360.972C569.224 361.346 568.6 362.581 568.972 363.726L570.25 367.654C568.369 368.568 566.75 369.649 565.403 370.887C561.042 374.881 559.663 379.195 561.26 383.794C562.041 386.058 563.38 387.851 565.277 389.173C568.476 391.438 572.698 392.129 577.936 391.275L580.848 400.225C578.442 400.164 575.942 399.409 573.346 397.95C572.747 397.541 572.094 397.451 571.394 397.678C571.007 397.804 570.363 398.379 570.363 398.379L570.351 398.383L567.211 401.929C566.671 402.533 566.517 403.143 566.729 403.774C566.868 404.182 567.14 404.496 567.543 404.73C569.016 405.812 570.804 406.722 572.927 407.461C576.358 408.68 579.889 408.986 583.506 408.413L584.656 411.949C585.028 413.093 586.258 413.719 587.408 413.345L587.429 413.351ZM586.229 389.653C588.495 389.634 589.92 390.492 590.481 392.255C591.003 393.898 590.665 395.413 589.477 396.794C589.269 397.044 589.031 397.279 588.783 397.504L586.229 389.653ZM571.65 380.451C571.228 379.172 571.638 377.937 572.898 376.74L573.151 376.532L575.219 382.885C573.349 382.789 572.16 381.979 571.65 380.451Z" stroke="white" stroke-linejoin="round"/>
<path d="M591.96 421.491C611.225 415.223 621.761 394.524 615.493 375.26C609.224 355.995 588.526 345.459 569.261 351.727C549.996 357.995 539.46 378.693 545.728 397.958C551.996 417.223 572.695 427.759 591.96 421.491Z" stroke="white" stroke-linejoin="round"/>
</g>
<g clip-path="url(#clip5_751_5184)">
<path d="M1652.44 407.309L1656.31 408.318C1657.48 408.623 1658.67 407.924 1658.97 406.76L1659.91 403.156C1663.13 403.5 1666.08 403.236 1668.77 402.327C1673 400.881 1675.71 398.079 1676.89 393.9C1677.62 391.294 1677.48 388.881 1676.44 386.656C1674.75 383.098 1671.41 380.273 1666.41 378.196L1668.31 370.902C1669.11 371.568 1669.84 372.371 1670.49 373.327C1670.9 373.891 1671.44 374.274 1672.13 374.454C1672.69 374.599 1673.55 374.416 1673.55 374.416L1673.57 374.419L1678.62 372.82C1679.31 372.598 1679.74 372.203 1679.89 371.619C1680.02 371.151 1679.94 370.697 1679.65 370.243C1677.74 366.456 1674.75 363.64 1670.68 361.781L1671.75 357.674C1672.05 356.503 1671.35 355.311 1670.18 355.008L1666.31 354C1665.14 353.695 1663.95 354.399 1663.65 355.564L1662.61 359.561C1660.53 359.317 1658.58 359.354 1656.78 359.671C1650.96 360.683 1647.47 363.573 1646.33 368.308C1645.77 370.636 1645.93 372.868 1646.82 375.004C1648.29 378.635 1651.47 381.494 1656.34 383.599L1653.97 392.706C1651.98 391.358 1650.28 389.375 1648.88 386.746C1648.6 386.078 1648.1 385.65 1647.38 385.465C1646.99 385.362 1646.14 385.499 1646.14 385.499L1646.13 385.496L1641.57 386.789C1640.79 387.007 1640.33 387.438 1640.17 388.083C1640.06 388.501 1640.12 388.913 1640.34 389.327C1641 391.033 1642.01 392.764 1643.4 394.53C1645.63 397.407 1648.44 399.568 1651.8 401.036L1650.86 404.633C1650.56 405.798 1651.25 406.988 1652.42 407.293L1652.44 407.309ZM1664.2 386.704C1666.12 387.909 1666.86 389.401 1666.38 391.188C1665.94 392.853 1664.83 393.946 1663.09 394.469C1662.78 394.568 1662.45 394.637 1662.12 394.693L1664.2 386.704ZM1656.89 371.094C1657.22 369.789 1658.23 368.97 1659.94 368.641L1660.26 368.602L1658.58 375.068C1657.06 373.978 1656.49 372.655 1656.89 371.094Z" stroke="white" stroke-linejoin="round"/>
<path d="M1651.86 416.607C1671.47 421.715 1691.5 409.963 1696.61 390.358C1701.72 370.754 1689.96 350.721 1670.36 345.613C1650.76 340.506 1630.72 352.258 1625.62 371.862C1620.51 391.467 1632.26 411.5 1651.86 416.607Z" stroke="white" stroke-linejoin="round"/>
</g>
<g clip-path="url(#clip6_751_5184)">
<path d="M169.438 185.309L173.308 186.318C174.479 186.623 175.669 185.924 175.972 184.76L176.911 181.156C180.132 181.5 183.083 181.236 185.77 180.327C190.001 178.881 192.711 176.079 193.887 171.9C194.621 169.294 194.476 166.881 193.441 164.656C191.751 161.098 188.41 158.273 183.408 156.196L185.308 148.902C186.106 149.568 186.837 150.371 187.491 151.327C187.901 151.891 188.445 152.274 189.134 152.454C189.69 152.599 190.555 152.416 190.555 152.416L190.566 152.419L195.617 150.82C196.306 150.598 196.737 150.203 196.895 149.619C197.023 149.151 196.943 148.697 196.647 148.243C194.744 144.456 191.747 141.64 187.678 139.781L188.748 135.674C189.053 134.503 188.349 133.311 187.185 133.008L183.314 132C182.144 131.695 180.952 132.399 180.649 133.564L179.607 137.561C177.53 137.317 175.584 137.354 173.782 137.671C167.956 138.683 164.469 141.573 163.334 146.308C162.771 148.636 162.932 150.868 163.817 153.004C165.29 156.635 168.474 159.494 173.345 161.599L170.972 170.706C168.979 169.358 167.28 167.375 165.88 164.746C165.597 164.078 165.096 163.65 164.383 163.465C163.989 163.362 163.137 163.499 163.137 163.499L163.125 163.496L158.569 164.789C157.788 165.007 157.329 165.438 157.168 166.083C157.065 166.501 157.125 166.913 157.338 167.327C157.995 169.033 159.011 170.764 160.4 172.53C162.633 175.407 165.442 177.568 168.796 179.036L167.859 182.633C167.555 183.798 168.254 184.988 169.424 185.293L169.438 185.309ZM181.204 164.704C183.123 165.909 183.861 167.401 183.383 169.188C182.936 170.853 181.835 171.946 180.09 172.469C179.78 172.568 179.452 172.637 179.122 172.693L181.204 164.704ZM173.887 149.094C174.221 147.789 175.232 146.97 176.939 146.641L177.264 146.602L175.58 153.068C174.057 151.978 173.492 150.655 173.887 149.094Z" stroke="white" stroke-linejoin="round"/>
<path d="M168.865 194.607C188.469 199.715 208.502 187.963 213.61 168.358C218.717 148.754 206.965 128.721 187.36 123.613C167.756 118.506 147.723 130.258 142.615 149.862C137.508 169.467 149.26 189.5 168.865 194.607Z" stroke="white" stroke-linejoin="round"/>
</g>
<path d="M442 14C478 84.8333 640.094 222.059 811 14C891.5 -84 969.5 -249 1188.5 -281M1933.5 -241C2097.5 -283.167 2390.7 -287.8 2251.5 31C2112.3 349.8 2449.5 208.833 2635.5 98.5" stroke="white" stroke-dasharray="26 26"/>
<path d="M40.0013 611.31C100.576 487.924 264.584 286.23 436.019 466.547C650.312 691.943 1008.46 704.011 1239.86 597.071" stroke="white" stroke-dasharray="26 26"/>
<path d="M1220 634.31C1285.4 513.413 1457.25 318.355 1621.43 505.302C1826.65 738.987 2184.04 765.191 2419.48 667.475" stroke="white" stroke-dasharray="26 26"/>
<path d="M2046.64 24.421C1972.98 140.469 1787.97 323.084 1637.21 125.155C1448.76 -122.255 1094.06 -173.289 852.385 -92.2088" stroke="white" stroke-dasharray="26 26"/>
</g>
<defs>
<linearGradient id="paint0_linear_751_5184" x1="21.9906" y1="525.598" x2="700.392" y2="1239.44" gradientUnits="userSpaceOnUse">
<stop stop-color="#FB5767"/>
<stop offset="0.511447" stop-color="#FB6D57"/>
<stop offset="1" stop-color="#FB7A55"/>
</linearGradient>
<linearGradient id="paint1_linear_751_5184" x1="1291.86" y1="732.106" x2="1117.23" y2="289.832" gradientUnits="userSpaceOnUse">
<stop stop-color="#FB5767"/>
<stop offset="0.681623" stop-color="#FB6D57"/>
<stop offset="1" stop-color="#FB7A55"/>
</linearGradient>
<linearGradient id="paint2_linear_751_5184" x1="-27.1443" y1="143.267" x2="29.3757" y2="-207.176" gradientUnits="userSpaceOnUse">
<stop stop-color="#FB5767"/>
<stop offset="0.454711" stop-color="#FB6D57"/>
<stop offset="1" stop-color="#FB7A55"/>
</linearGradient>
<linearGradient id="paint3_linear_751_5184" x1="2232.55" y1="-330.544" x2="998.962" y2="-330.544" gradientUnits="userSpaceOnUse">
<stop stop-color="#FB5767"/>
<stop offset="1" stop-color="#FB7156"/>
</linearGradient>
<linearGradient id="paint4_linear_751_5184" x1="510.919" y1="746.556" x2="778.665" y2="308.222" gradientUnits="userSpaceOnUse">
<stop stop-color="#FB5767"/>
<stop offset="0.681623" stop-color="#FB6D57"/>
<stop offset="1" stop-color="#FB7A55"/>
</linearGradient>
<clipPath id="clip0_751_5184">
<rect width="1920" height="540" fill="white"/>
</clipPath>
<clipPath id="clip1_751_5184">
<rect width="1920" height="540" fill="white"/>
</clipPath>
<clipPath id="clip2_751_5184">
<rect width="255.413" height="320" fill="white" transform="translate(832 129)"/>
</clipPath>
<clipPath id="clip3_751_5184">
<rect width="73.9628" height="73.9628" fill="white" transform="translate(1319 156.884) rotate(-18.023)"/>
</clipPath>
<clipPath id="clip4_751_5184">
<rect width="73.9628" height="73.9628" fill="white" transform="translate(534 362.884) rotate(-18.023)"/>
</clipPath>
<clipPath id="clip5_751_5184">
<rect width="73.9628" height="73.9628" fill="white" transform="translate(1634.65 336) rotate(14.6025)"/>
</clipPath>
<clipPath id="clip6_751_5184">
<rect width="73.9628" height="73.9628" fill="white" transform="translate(151.648 114) rotate(14.6025)"/>
</clipPath>
</defs>
</svg>
